<?xml version="1.0" encoding="iso-8859-1"?>
<!-- Generator: Adobe Illustrator 16.0.0, SVG Export Plug-In . SVG Version: 6.00 Build 0)  -->
<!DOCTYPE svg PUBLIC "-//W3C//DTD SVG 1.1//EN" "http://www.w3.org/Graphics/SVG/1.1/DTD/svg11.dtd">
<svg version="1.1" id="Capa_1" xmlns="http://www.w3.org/2000/svg" xmlns:xlink="http://www.w3.org/1999/xlink" x="0px" y="0px"
	 viewBox="0 0 953.871 953.871" style="enable-background:new 0 0 953.871 953.871;"
	 xml:space="preserve">
<g>
	<path d="M30.819,625.771h257.196c7.512,0,12.206-8.133,8.449-14.639l-215.5-373.1c-3.762-6.514-13.142-6.484-16.915,0.024
		C23.321,308.3,0,389.894,0,476.937c0,49.441,7.529,97.121,21.493,141.965C22.764,622.985,26.542,625.771,30.819,625.771z"/>
	<path d="M477.104,0.001c-0.056,0-0.113,0-0.169,0c-138.499,0-263.205,59.041-350.335,153.32c-2.906,3.144-3.433,7.812-1.292,11.521
		L253.785,387.37c3.757,6.509,13.151,6.504,16.904-0.007L485.5,14.63C489.232,8.149,484.586,0.003,477.104,0.001z"/>
	<path d="M923.156,328.436H666.051c-7.512,0-12.207,8.134-8.449,14.638l215.336,372.71c3.764,6.514,13.145,6.482,16.916-0.025
		c40.707-70.232,64.018-151.805,64.018-238.822c0-49.317-7.49-96.881-21.387-141.626
		C931.217,331.224,927.436,328.436,923.156,328.436z"/>
	<path d="M890.273,238.841c-65.607-113.65-176.74-197.712-308.479-227.268c-4.178-0.937-8.482,0.933-10.623,4.64L442.598,238.908
		c-3.756,6.506,0.939,14.638,8.453,14.636l430.75-0.104C889.289,253.438,894.018,245.328,890.273,238.841z"/>
	<path d="M502.268,700.341L72.25,700.755c-7.49,0.006-12.212,8.121-8.462,14.604c65.551,113.346,176.403,197.205,307.803,226.83
		c4.179,0.943,8.49-0.928,10.632-4.637l128.503-222.576C514.484,708.468,509.783,700.333,502.268,700.341z"/>
	<path d="M700.109,566.425c-3.754-6.504-13.141-6.504-16.898-0.002l-215.35,372.807c-3.744,6.482,0.902,14.631,8.387,14.641
		c0.229,0,0.459,0,0.688,0c138.522,0,263.245-59.059,350.377-153.365c2.906-3.145,3.432-7.812,1.293-11.52L700.109,566.425z"/>
</g>
<g>
</g>
<g>
</g>
<g>
</g>
<g>
</g>
<g>
</g>
<g>
</g>
<g>
</g>
<g>
</g>
<g>
</g>
<g>
</g>
<g>
</g>
<g>
</g>
<g>
</g>
<g>
</g>
<g>
</g>
</svg>
