<?xml version="1.0" encoding="iso-8859-1"?>
<!-- Generator: Adobe Illustrator 19.0.0, SVG Export Plug-In . SVG Version: 6.00 Build 0)  -->
<svg version="1.1" id="Layer_1" xmlns="http://www.w3.org/2000/svg" xmlns:xlink="http://www.w3.org/1999/xlink" x="0px" y="0px"
	 viewBox="0 0 472.615 472.615" style="enable-background:new 0 0 472.615 472.615;" xml:space="preserve">
<g>
	<g>
		<path d="M450.695,21.922c-14.614-14.613-33.767-21.92-52.921-21.92c-19.154,0-38.307,7.308-52.921,21.92L317.195,49.58
			l105.837,105.844l27.662-27.661c14.614-14.614,21.922-33.766,21.922-52.92C472.615,55.688,465.309,36.534,450.695,21.922z"/>
	</g>
</g>
<g>
	<g>
		<polygon points="33.187,333.58 1.826,364.943 0,472.609 107.667,470.784 139.03,439.421 		"/>
	</g>
</g>
<g>
	<g>
		<path d="M303.271,63.502L195.237,171.535L47.112,319.66l105.841,105.841l148.126-148.125l108.03-108.029L303.271,63.502z
			 M171.199,315.333l-13.922-13.923l13.605-13.605l13.923,13.922L171.199,315.333z M207.084,279.448l-13.923-13.922l13.923-13.923
			l13.922,13.923L207.084,279.448z M243.286,243.247l-13.922-13.923l13.932-13.923l13.923,13.923L243.286,243.247z M279.497,207.044
			l-13.922-13.922l13.922-13.923l13.923,13.923L279.497,207.044z"/>
	</g>
</g>
<g>
	<g>
		<rect x="225.339" y="452.922" width="247.237" height="19.692"/>
	</g>
</g>
<g>
</g>
<g>
</g>
<g>
</g>
<g>
</g>
<g>
</g>
<g>
</g>
<g>
</g>
<g>
</g>
<g>
</g>
<g>
</g>
<g>
</g>
<g>
</g>
<g>
</g>
<g>
</g>
<g>
</g>
</svg>
