<svg xmlns="http://www.w3.org/2000/svg" xmlns:xlink="http://www.w3.org/1999/xlink" version="1.1" x="0px" y="0px" viewBox="0 0 500 500" style="enable-background:new 0 0 500 500;" xml:space="preserve">
<style type="text/css">
	.st0{opacity:0.5;fill:#CCE9FF;enable-background:new    ;}
	.st1{fill:#8FC7F9;}
	.st2{fill:#0B4870;}
	.st3{fill:#FFE3CA;}
	.st4{fill:#FACA68;}
	.st5{fill:#F6A704;}
	.st6{fill:#FAB9AF;}
	.st7{fill:#2A94F4;}
	.st8{fill:#F8B936;}
	.st9{fill:#FFFFFF;}
	.st10{fill:none;stroke:#FFFFFF;stroke-width:0.25;stroke-linecap:round;stroke-miterlimit:10;}
	.st11{fill:none;stroke:#8FC7F9;stroke-width:2;stroke-linecap:round;stroke-miterlimit:10;}
	.st12{fill:none;stroke:#F6A704;stroke-width:6;stroke-linecap:round;stroke-miterlimit:10;}
</style>
<g id="bg">
	<path class="st0" d="M56.23,396.45h381.58c0,0,60.51-87.23,10.72-146.45S342.19,213.64,271.5,137.58   c-39.76-42.77-158.03-13.26-130.28,81.54C158.31,277.48,4.39,324.83,56.23,396.45z"/>
</g>
<g id="people">
	<g>
		<path class="st1" d="M104.15,389.88h74.15c2.07,0,3.75,1.68,3.75,3.75v0c0,2.07-1.68,3.75-3.75,3.75h-74.15    c-2.07,0-3.75-1.68-3.75-3.75v0C100.4,391.56,102.08,389.88,104.15,389.88z"/>
		<path class="st1" d="M113.47,389.88c20-1.5,21.72-32.86,21.5-54h6v58L113.47,389.88z"/>
		<path class="st1" d="M168.47,389.88c-20-1.5-21.72-32.86-21.5-54h-6v58L168.47,389.88z"/>
	</g>
	<path class="st2" d="M170.76,231.67c0,0-8-39.56-36.17-40.67s-44.01,39.49-53.07,80.09s26.84,86.57,95.88,65.36   S215.44,283.4,170.76,231.67z"/>
	<g>
		<path class="st1" d="M380,388.95h-74.15c-2.07,0-3.75,1.68-3.75,3.75l0,0c0,2.07,1.68,3.75,3.75,3.75H380    c2.07,0,3.75-1.68,3.75-3.75l0,0C383.75,390.63,382.07,388.95,380,388.95z"/>
		<path class="st1" d="M370.67,388.95c-20-1.5-21.72-32.86-21.5-54h-6v58L370.67,388.95z"/>
		<path class="st1" d="M315.67,388.95c20-1.5,21.72-32.86,21.5-54h6v58L315.67,388.95z"/>
	</g>
	<path class="st2" d="M313.38,229.11c8.65-28.55,16.04-40.69,36.17-40.67c28.19,0.03,44.01,39.49,53.07,80.09   s-26.84,86.57-95.88,65.36S302.09,266.39,313.38,229.11z"/>
	<g>
		<path class="st3" d="M215.11,201.91c0,0,2.15,26.45,3.26,39.22c1.11,12.77-8.41,22.07-14.11,25.55    c-5.7,3.48-22.21-11.6-27.49-19.03s16.68-10.5,16.68-10.5l7.02,8.77l8.49-42.59L215.11,201.91z"/>
		<path class="st4" d="M191,233c0,0,2-3,3,0s0,2,2,3s0,4,1,4s3,2,2,3s-21.7,12.77-21.7,12.77L179,242L191,233z"/>
		<path class="st5" d="M138,192c0,0-10,6-19,10s-9.15,11.84-10,22c-1,12-2,24-2,24s15,6,20,7l2.28,27c0,0,54.63-2.13,57.11-5.03    C188.86,274.06,179,242,179,242l12-9c0,0-10-21-14-29s-23.07-12-23.07-12H138z"/>
		<path class="st4" d="M152.11,207.77l6.45-2.47l-1.05-5.49l5.37-2.55l-7.03-7.69c0,0-4.99-2.77-12.71-2.07s-10.27,3-10.27,3    l-1.15,5.1l6.28,7.54l4.57-0.89v4.98L152.11,207.77z"/>
		<path class="st3" d="M152.15,187.02L155,195c0,0-2,5-8,4s-9-7-9-7l1-12L152.15,187.02z"/>
		<path class="st6" d="M138.79,182.49c0,0,6.21,8.51,10.21,8.51s3-4,3-4v-3L138.79,182.49z"/>
		<polygon class="st2" points="128.04,154.31 134,176 140,173   "/>
		<path class="st3" d="M161,158c0,0,7,23-6,28s-21-10-21-10s-8.81-8.19-5-12c2-2,4,1,4,1s-3-10,7-14S158,148,161,158z"/>
		<path class="st1" d="M136,169c0,0-3-11,3-13s19.56-3.03,19.56-3.03s-6.57-8.06-14.56-6.97c-22,3-10,22-10,22L136,169z"/>
		<path class="st2" d="M132,164c0,0,1-7,7-8s15-2,21-3s-2.87-14.27-18-12C122,144,128.09,158.45,132,164z"/>
		
			<rect x="198.89" y="178.83" transform="matrix(0.9663 0.2574 -0.2574 0.9663 56.3378 -46.3861)" class="st7" width="12.9" height="26.3"/>
		<path class="st4" d="M107,248h21c0,0,2,1,1,3s0,3,0,4s-1,4-1,4h-21c0,0-2-2-2-3s1.38-3.28,0.94-4.11S104.49,248,107,248z"/>
		<polygon class="st3" points="140.46,195.35 152.11,207.77 155,195   "/>
		<path class="st3" d="M128,259l0.04,3.3c0,0,25.1,4.91,34.84,4.79c9.74-0.13,8.54-2.89,12.63-4.04c4.09-1.15,5.79,0.38,8.34,2.76    c2.55,2.38,3.57,8.19,1.19,8.19s-73.02,0-73.02,0l-2.72-15H128z"/>
		<path class="st3" d="M215.66,198.84c1.45-5.36,0.68-9.1-1.87-9.83s-5.96-2.13-8.85-1.56c-2.89,0.58,0.85,3.81,0.85,3.81    s-2.81-1.45-2.55,0c0.26,1.45,2.21,3.66,2.21,3.66s-2.64-3.01-3.74-1.84s3.91,5.16,5.28,7.46c1.36,2.3,5.87,7.57,7.15,4.43    C215.4,201.82,215.66,198.84,215.66,198.84z"/>
		<g>
			<path class="st5" d="M189.48,288.22c0.02-0.04,0.05-0.08,0.08-0.12C189.53,288.14,189.5,288.18,189.48,288.22z"/>
			<path class="st5" d="M189.3,288.51c0.06-0.1,0.12-0.19,0.18-0.29C189.42,288.32,189.36,288.42,189.3,288.51z"/>
			<path class="st5" d="M135.94,294.23c16.34-0.17,49.28,0.94,53.06-5.23h-68.38C120.62,289,119.6,294.4,135.94,294.23z"/>
			<path class="st5" d="M189.03,288.95c0.05-0.08,0.14-0.23,0.27-0.44C189.22,288.65,189.13,288.79,189.03,288.95z"/>
			<path class="st5" d="M189.55,288.1c0.15-0.24,0.28-0.45,0.39-0.64C189.81,287.68,189.68,287.89,189.55,288.1z"/>
			<path class="st5" d="M189,289c0.01-0.02,0.02-0.03,0.03-0.05C189.01,288.98,189,289,189,289z"/>
			<path class="st5" d="M190.63,286.34c0.02-0.03,0.03-0.05,0.04-0.06C190.66,286.29,190.65,286.31,190.63,286.34z"/>
			<path class="st5" d="M189.94,287.46c0.06-0.09,0.11-0.18,0.16-0.27C190.06,287.27,190,287.37,189.94,287.46z"/>
			<path class="st5" d="M190.67,286.28C190.68,286.26,190.68,286.26,190.67,286.28L190.67,286.28z"/>
			<path class="st5" d="M190.11,287.19c0.22-0.36,0.37-0.6,0.46-0.75C190.46,286.62,190.3,286.89,190.11,287.19z"/>
			<path class="st5" d="M190.57,286.45c0.03-0.04,0.05-0.08,0.06-0.1C190.61,286.37,190.59,286.41,190.57,286.45z"/>
		</g>
		<path class="st7" d="M214.52,284.02c0,0,18.44-3.53,19.12,7.6c0.68,11.13-36.21,86.36-36.21,86.36H181l18.27-70.47L214.52,284.02z    "/>
		<path class="st7" d="M124.23,292.78c0,0,63.32-10.93,75.04-10.78c11.73,0.15,8.86,13.77,3.48,32.66s-27.67,63.32-27.67,63.32    h-22.97l20.93-59.91c0,0-28.69,2.21-41.32-5.45C119.09,304.96,124.23,292.78,124.23,292.78z"/>
		<polygon class="st3" points="169.64,377.98 166.91,382.4 152.11,382.4 154.15,377.98   "/>
		<path class="st2" d="M165.91,382.4h3.57c0,0,2.55,5.11,7.83,5.11s11.4-0.85,12.68,3.06s1.11,6.81,1.11,6.81h-45.91l5.92-14.98    H165.91z"/>
		<polygon class="st3" points="197.47,377.98 194.74,382.4 179.94,382.4 181.98,377.98   "/>
		<path class="st2" d="M193.74,382.4h3.57c0,0,2.55,5.11,7.83,5.11s11.4-0.85,12.68,3.06s1.11,6.81,1.11,6.81h-45.91l5.92-14.98    H193.74z"/>
	</g>
	<g>
		<g>
			<path class="st3" d="M283.56,330.73c0,0,0.49,4.2,1.13,11.06c0.85,9.07-2.38,33.2-2.38,33.2l-7.4,1.28l-6.77-45.54H283.56z"/>
			<path class="st7" d="M266.6,387.86c0,0-1.08,1-2.36,1.51c-3.27,1.3-8.4,3.4-4.28,7.09h12.06l7.72-8.59l1.15,8.59h1.4     c0,0,1.02-7.85,0.64-12.64c-0.38-4.79-0.64-8.81-0.64-8.81l-6.45,4.4l-3.13,7.92L266.6,387.86z"/>
			<path class="st3" d="M274.59,374.21c0,0,0.25,6.42-8.88,14.49c-4.71,4.16,0.31,3.62,5.99,2.01S282.3,375,282.3,375L274.59,374.21     z"/>
		</g>
		<path class="st7" d="M326.8,186.58c0,0,3.87,4.49,1.53,6.29c-2.33,1.8-0.72,5.14,1.42,5.82c2.14,0.67-5.06,3.87-3.79,5.89    c1.27,2.02,7.58,2.2,5.36,5.29c0,0,4.48-3.42,2.08-5.16s0.17-5.52,0.89-7.36c0.72-1.83-4.53-1.22-3.24-3.14    c1.29-1.92,3.08-7.34,1.42-8.56C330.82,184.44,326.8,186.58,326.8,186.58z"/>
		<g>
			<path class="st3" d="M331.08,201.22c0,0,13.72,52.33,9.61,56.27c-4.11,3.94-36.82,12.56-36.82,12.56l1.13-6.09     c21.12-12.71,16.96-10.2,20.35-12.25c3.79-2.28,5.71-1.05,5.71-1.05s-6.9-20.53-7.66-32.57S331.08,201.22,331.08,201.22z"/>
			<path class="st6" d="M298.86,264.82c0,0-5.86,2.91-3.88,3.54c1.98,0.64,5.98-1.76,5.98-1.76L298.86,264.82z"/>
			<path class="st3" d="M304.99,263.71c0,0-8.68-4.13-10.92-4.17c-2.24-0.03-9.72,4.73-8.14,6.05c1.58,1.32,6.98-2.03,9.12-0.11     c2.15,1.92,6.11,5.55,7.79,4.92C306.55,269.03,304.99,263.71,304.99,263.71z"/>
			<path class="st3" d="M298.12,262.84c0,0-6.52,3.26-7.73,4.17s0.65,1.48,1.53,1.12c0.88-0.37,2.98-2.19,5.81-0.9     C300.57,268.52,298.12,262.84,298.12,262.84z"/>
		</g>
		<path class="st7" d="M322.64,180.29c0,0,2.76,8.55-1.39,11.62c-4.15,3.07,5.24,3.98,1.02,7.52c-4.22,3.54-3.28,6.83,0.4,7.65    c0,0-4.52-2.39,1.44-5.53c4.43-2.33,3.07-5.54,1.34-6.47c-3.22-1.73,3.24-6.06,3.24-6.06L322.64,180.29z"/>
		<path class="st7" d="M328.37,149.47c0,0,14.7-5.06,23.03,5.33c8.34,10.39,2.27,19.9,7.35,21.11c5.08,1.21,9.5,1.81,7.21,6.76    c-2.29,4.94,7.77,1.6,7.1,6.82c-0.67,5.22-9.95,9.33-5.59,9.72c4.36,0.39-14.06,10.8-14.06,10.8l-12.39-21.36L328.37,149.47z"/>
		<polygon class="st3" points="330.27,252.48 326.56,269.81 365.83,264.87 361.86,252.04   "/>
		<path class="st8" d="M354.42,194.96c0,0,4.63,1.71,11.15,5.38c0,0,5.09,14.33-1.39,35.11c-3.05,9.78,4.79,35.42,6.1,39.47    c0.51,1.57-46.22-0.91-46.22-0.91s7.5-34.75,3.67-43.26s-3.96-12.01,0.75-23.32c2.58-6.2,2.58-6.2,2.58-6.2l8.65-3.78    L354.42,194.96z"/>
		<g>
			<polygon class="st3" points="333.25,180.97 344.35,179.05 354.21,195.08 344.05,207.08 338.7,197.56    "/>
		</g>
		<path class="st6" d="M337.93,195.21c1.09,0.62,7.9-1.65,10.17-10.08l-3.75-6.09l-11.1,1.93L337.93,195.21z"/>
		<g>
			<path class="st3" d="M320.65,175.67c-0.51-1.94-1.12-4.11-1.76-6.28c-2.12-7.26,1.71-14.93,8.8-17.56h0     c7.64-2.84,16.1,1.22,18.67,8.95l2.74,8.23c1.16,3.14,0.63,8.61-1.43,12.4c-3.58,6.6-6.77,9.82-10.33,11.14     C330.99,193.68,323.05,184.82,320.65,175.67z"/>
		</g>
		<path class="st3" d="M349.86,164.74c2.12-0.21,4.57,0.67,4.93,4.26c0.36,3.59-1.5,8.53-3.62,8.74c-2.12,0.21-4.13-2.52-4.49-6.11    C346.31,168.04,347.74,164.96,349.86,164.74z"/>
		<path class="st7" d="M340.48,167.29c0,0,5.56,0.78,3.51,4.84s0.39,4.3,2.16,5.04s-0.67,3.94-0.67,3.94s4.12-2.56,2.91-4.83    s-1.99-3.51-0.43-6.41s0.35-4.36,0.35-4.36L340.48,167.29z"/>
		<g>
			<path class="st3" d="M365.69,200.22c0,0,21.2,49.38,17.65,53.85s-34.78,17.42-34.78,17.42l0.3-6.18     c19.21-15.45,15.42-12.4,18.51-14.89c3.44-2.78,5.51-1.81,5.51-1.81l-11.99-31.23L365.69,200.22z"/>
			<path class="st6" d="M342.89,266.99c0,0-5.41,3.67-3.37,4.03c2.05,0.36,5.69-2.55,5.69-2.55L342.89,266.99z"/>
			<path class="st3" d="M348.82,265.06c0,0-9.16-2.92-11.38-2.65s-8.99,6-7.25,7.1s6.64-2.95,9.03-1.34     c2.39,1.61,6.81,4.67,8.39,3.83C351.09,270.12,348.82,265.06,348.82,265.06z"/>
			<path class="st3" d="M341.9,265.13c0,0-6.02,4.11-7.09,5.17c-1.07,1.06,0.84,1.38,1.67,0.9s2.66-2.57,5.64-1.68     S341.9,265.13,341.9,265.13z"/>
		</g>
		<path class="st7" d="M349.89,177.51c0,0-1.16,9.55,3.6,11.31c4.76,1.76,6.19,6.82,4.65,8.47s-0.53,5.42,2.6,5.82    c3.13,0.4,3.59,4.04,1.49,6.11s1.75,1.13,3.9-0.95c2.15-2.08-0.46-6.94-2.79-7.73c-2.33-0.79,0.19-4.43,0.38-8.07    c0.19-3.65-6.36-4.71-6.36-4.71l-3.82-12.3C353.54,175.45,352.3,179.74,349.89,177.51z"/>
		<path class="st7" d="M326.23,157.98c0,0,3.74,8.49,14.25,9.31l7.83-1.78l0.44-8.67c0,0-8.75-7.45-13.39-6.61    c-4.64,0.84-6.99-0.75-6.99-0.75s-11.57,4.86-13.56,12.47c-1.99,7.61,5.45,12.47,5.45,12.47S317.11,165.74,326.23,157.98z"/>
		<path class="st7" d="M370.29,274.91c0,0,6.93,24.26-13.37,29.53c-20.3,5.28-48.5-0.17-54.83,1.7s-4.22,24.59-4.22,24.59H268.1    c0,0-7.22-34.37,5.03-41.73s50.95-15,50.95-15L370.29,274.91z"/>
		<g>
			<path class="st3" d="M297.87,330.73c0,0,0.49,4.2,1.13,11.06c0.85,9.07,1.62,33.2,1.62,33.2l-7.4,1.28l-10.77-45.54H297.87z"/>
			<path class="st7" d="M284.91,387.86c0,0-1.08,1-2.36,1.51c-3.27,1.3-8.4,3.4-4.28,7.09h12.06l7.72-8.59l1.15,8.59h1.4     c0,0,1.02-7.85,0.64-12.64c-0.38-4.79-0.64-8.81-0.64-8.81l-6.45,4.4l-3.13,7.92L284.91,387.86z"/>
			<path class="st3" d="M292.91,374.21c0,0,0.25,6.42-8.88,14.49c-4.71,4.16,0.31,3.62,5.99,2.01s10.6-15.71,10.6-15.71     L292.91,374.21z"/>
		</g>
	</g>
	<g>
		<path class="st7" d="M311.16,274h-49.3l-13.21-27.97c-1.29-2.74,0.7-5.89,3.73-5.89h40.17c1.6,0,3.05,0.92,3.73,2.36L311.16,274z"/>
		
			<ellipse transform="matrix(0.9284 -0.3717 0.3717 0.9284 -76.9469 121.9462)" class="st9" cx="277.87" cy="260.58" rx="3.03" ry="4.82"/>
		<path class="st7" d="M340.65,274H308.9v-2.52h34.27l0,0C343.17,272.87,342.04,274,340.65,274z"/>
	</g>
	<path class="st10" d="M355.52,195.39c0,0-6.01,18.25-12.35,18.25c-6.34,0-4.47-16.08-4.47-16.08"/>
	<circle class="st9" cx="343.17" cy="213.64" r="0.98"/>
</g>
<g id="symbol">
	<g>
		<circle class="st2" cx="207.32" cy="137.08" r="28.07"/>
		<polygon class="st2" points="201.35,162.29 207.32,172.64 213.3,162.29   "/>
		<path class="st11" d="M221.38,140.21c-2.22-5.6-7.67-9.56-14.05-9.56s-11.84,3.96-14.05,9.56"/>
		<path class="st11" d="M216.82,144.04c-1.5-3.78-5.18-6.46-9.49-6.46c-4.31,0-8,2.68-9.49,6.46"/>
		<path class="st11" d="M225.59,136.26c-2.88-7.27-9.97-12.43-18.27-12.43s-15.38,5.15-18.27,12.43"/>
		<circle class="st1" cx="207.32" cy="146.81" r="2.93"/>
		<line class="st12" x1="190.26" y1="120.14" x2="222.58" y2="152.47"/>
	</g>
	<g>
		<circle class="st2" cx="265.16" cy="195.39" r="28.07"/>
		<polygon class="st2" points="259.19,220.6 265.16,230.95 271.14,220.6   "/>
		<path class="st11" d="M279.22,198.52c-2.22-5.6-7.67-9.56-14.05-9.56s-11.84,3.96-14.05,9.56"/>
		<path class="st11" d="M274.66,202.35c-1.5-3.78-5.18-6.46-9.49-6.46s-8,2.68-9.49,6.46"/>
		<path class="st11" d="M283.43,194.56c-2.88-7.27-9.97-12.43-18.27-12.43s-15.38,5.15-18.27,12.43"/>
		<circle class="st1" cx="265.16" cy="205.12" r="2.93"/>
		<line class="st12" x1="248.1" y1="178.45" x2="280.42" y2="210.77"/>
	</g>
</g>
<g id="table">
	<g>
		<path class="st1" d="M396.5,289h-306c-4.14,0-7.5-3.36-7.5-7.5l0,0c0-4.14,3.36-7.5,7.5-7.5h306c4.14,0,7.5,3.36,7.5,7.5l0,0    C404,285.64,400.64,289,396.5,289z"/>
		<path class="st1" d="M299,289c-40,3-43.43,65.73-43,108h-12V281L299,289z"/>
		<path class="st1" d="M189,289c40,3,43.43,65.73,43,108h12V281L189,289z"/>
	</g>
</g>
</svg>