<?xml version="1.0" encoding="iso-8859-1"?>
<!-- Generator: Adobe Illustrator 19.0.0, SVG Export Plug-In . SVG Version: 6.00 Build 0)  -->
<svg version="1.1" id="Layer_1" xmlns="http://www.w3.org/2000/svg" xmlns:xlink="http://www.w3.org/1999/xlink" x="0px" y="0px"
	 viewBox="0 0 502 502" style="enable-background:new 0 0 502 502;" xml:space="preserve">
<g>
	<g>
		<path d="M251,502c-3.443,0-6.645-1.771-8.473-4.689C236.212,487.236,87.87,249.582,87.87,163.13C87.87,73.18,161.05,0,251,0
			s163.13,73.18,163.13,163.13c0,86.452-148.342,324.106-154.657,334.181C257.645,500.229,254.443,502,251,502z M251,20
			c-78.922,0-143.13,64.208-143.13,143.13c0,32.929,26.05,99.093,75.333,191.34c27.067,50.662,54.401,96.442,67.797,118.444
			c13.396-22.001,40.729-67.782,67.797-118.444c49.283-92.247,75.333-158.412,75.333-191.34C394.13,84.208,329.922,20,251,20z
			 M251,249.181c-47.448,0-86.051-38.603-86.051-86.051S203.552,77.079,251,77.079s86.051,38.602,86.051,86.051
			S298.448,249.181,251,249.181z M251,97.079c-36.421,0-66.051,29.63-66.051,66.051c0,36.421,29.63,66.051,66.051,66.051
			s66.051-29.63,66.051-66.051C317.051,126.709,287.421,97.079,251,97.079z"/>
	</g>
	<g>
		<path d="M133.949,173.13c-5.522,0-10-4.477-10-10c0-24.107,6.783-47.57,19.617-67.852c12.482-19.727,30.113-35.633,50.985-46
			c4.945-2.458,10.947-0.438,13.404,4.508s0.438,10.948-4.508,13.404c-36.7,18.229-59.499,54.991-59.499,95.939
			C143.949,168.653,139.472,173.13,133.949,173.13z"/>
	</g>
	<g>
		<path d="M302.994,68.238c-1.494,0-3.012-0.336-4.44-1.046C283.708,59.818,267.709,56.079,251,56.079c-5.522,0-10-4.477-10-10
			s4.478-10,10-10c19.823,0,38.815,4.441,56.45,13.2c4.946,2.457,6.965,8.458,4.508,13.404
			C310.211,66.201,306.672,68.238,302.994,68.238z"/>
	</g>
</g>
<g>
</g>
<g>
</g>
<g>
</g>
<g>
</g>
<g>
</g>
<g>
</g>
<g>
</g>
<g>
</g>
<g>
</g>
<g>
</g>
<g>
</g>
<g>
</g>
<g>
</g>
<g>
</g>
<g>
</g>
</svg>
